<?xml version="1.0" encoding="UTF-8" standalone="no"?><!DOCTYPE svg PUBLIC "-//W3C//DTD SVG 1.1//EN" "http://www.w3.org/Graphics/SVG/1.1/DTD/svg11.dtd"><svg width="100%" height="100%" viewBox="0 0 530 873" version="1.1" xmlns="http://www.w3.org/2000/svg" xmlns:xlink="http://www.w3.org/1999/xlink" xml:space="preserve" xmlns:serif="http://www.serif.com/" style="fill-rule:evenodd;clip-rule:evenodd;stroke-linejoin:round;stroke-miterlimit:2;"><g><path d="M162.394,568.204c17.682,5.294 24.68,2.866 22.008,13.901c-25.819,106.629 -76.847,294.677 -94.887,290.778c-18.041,-3.9 19.082,-197.852 40.593,-305.441c1.94,-9.702 14.443,-4.58 32.286,0.762Z" style="fill:#93a9bd;"/><path d="M368.974,566.316c-18.041,3.899 -25.917,3.533 -23.135,15.022c25.818,106.628 76.379,295.444 94.419,291.545c18.041,-3.9 -17.676,-196.408 -39.187,-303.997c-2.494,-12.473 -14.057,-6.469 -32.097,-2.57Z" style="fill:#93a9bd;"/><path d="M348.81,646.641c2.049,-1.2 -3.185,-19.587 -5.234,-18.387l-185.583,108.484c-6.466,6.957 -10.522,20.726 -4.938,22.675l195.755,-112.772Z" style="fill:#93a9bd;"/><path d="M380.212,759.413c4.286,-3.96 -0.473,-18.448 -2.523,-19.647l-192.611,-111.568c-2.05,-1.199 -7.928,15.916 -5.878,17.115l201.012,114.1Z" style="fill:#93a9bd;"/><path d="M264.887,5.771c61.447,0 130.652,-14.758 158.693,12.553c92.662,90.254 9.929,319.704 36.018,344.841c46.925,45.211 70.175,40.777 70.175,78.393c0,64.333 -118.692,116.564 -264.886,116.564c-146.195,0 -264.887,-52.231 -264.887,-116.564c0,-37.616 19.295,-32.793 68.814,-78.393c25.732,-23.697 -54,-249.972 26.129,-344.089c27.968,-32.851 101.507,-13.305 169.944,-13.305Z" style="fill:#34c1ad;"/><path d="M226.266,364.203c-6.308,-1.88 -14.848,-1.137 -19.059,1.658l-61.045,40.514c-4.212,2.795 -2.51,6.59 3.798,8.471l153.547,45.77c6.308,1.88 14.848,1.138 19.059,-1.657l61.045,-40.514c4.212,-2.795 2.51,-6.591 -3.798,-8.471l-153.547,-45.771Z" style="fill:#fff;"/><path d="M105.859,323.964c2.734,60.671 38.801,88.285 38.801,88.285l72.113,-47.598l169.151,51.479c62.673,-115.783 33.799,-238.081 8.401,-303.25c-26.454,-67.878 -95.802,-97.111 -187.534,-77.021c-82.701,32.022 -107.5,142.323 -100.932,288.105Z" style="fill:url(#_Linear1);"/></g><defs><linearGradient id="_Linear1" x1="0" y1="0" x2="1" y2="0" gradientUnits="userSpaceOnUse" gradientTransform="matrix(-0.91676,-401.07,236.358,-0.540263,264.887,416.13)"><stop offset="0" style="stop-color:#fff;stop-opacity:0.5"/><stop offset="0.2" style="stop-color:#fff;stop-opacity:0.33"/><stop offset="0.43" style="stop-color:#fff;stop-opacity:0.15"/><stop offset="1" style="stop-color:#fff;stop-opacity:0.07"/></linearGradient></defs></svg>