<svg width="200" height="200" viewBox="0 0 200 200" fill="none" xmlns="http://www.w3.org/2000/svg">
<g clip-path="url(#clip0)">
<circle cx="100" cy="100" r="100" fill="white" />
<path d="M114.94 10.3607C110.507 15.3861 111.065 22.993 116.257 27.3663C116.786 27.7828 117.344 28.1312 117.89 28.4788L110.941 57.6836C108.859 57.2763 106.754 56.9606 104.578 56.8266C95.7721 56.2845 87.408 58.1658 80.0807 61.8209L68.7471 42.2328C69.6533 41.0847 70.1954 39.6466 70.1424 38.0846C70.0239 34.483 66.9632 31.6542 63.2457 31.7394C59.5512 31.8376 56.6626 34.8412 56.7692 38.442C56.8758 42.0429 59.9725 44.8682 63.6663 44.7815C64.0367 44.7752 64.3694 44.7026 64.7364 44.6554L75.9705 64.1153C70.568 67.5282 65.9148 71.9527 62.3275 77.1931L41.3808 62.4221C41.7067 61.0056 41.5802 59.474 40.8606 58.0746C39.1967 54.8548 35.1961 53.5268 31.8975 55.1441C28.5818 56.7488 27.2312 60.6554 28.8948 63.881C30.5527 67.1005 34.5655 68.4235 37.8813 66.8188C38.2071 66.6644 38.4927 66.4842 38.7865 66.2696L59.8758 81.1483C57.4476 85.5935 55.6978 90.4584 54.8706 95.6535L38.3915 91.8823C38.1948 90.8117 37.7136 89.805 36.8289 89.0526C34.7623 87.3318 31.6645 87.5307 29.9058 89.5337C28.1234 91.5352 28.3608 94.5625 30.4147 96.2941C32.4694 98.0142 35.5799 97.8044 37.3437 95.8134C37.493 95.619 37.5611 95.3848 37.7107 95.1846L54.5015 99.0332C54.4678 99.3859 54.4055 99.7194 54.3841 100.067C54.0153 106.058 54.865 111.839 56.6834 117.203L31.4728 128.65C29.9151 127.292 27.9171 126.395 25.6675 126.292C20.4718 126.053 16.0726 129.941 15.8682 135.006C15.6411 140.052 19.6448 144.334 24.8342 144.578C30.0117 144.821 34.3816 140.926 34.6213 135.869C34.6404 135.365 34.5808 134.878 34.5331 134.392L59.1667 123.207C62.4457 129.76 67.2921 135.479 73.2412 139.864L56.8561 157.833C55.4582 157.368 53.8842 157.341 52.383 157.877C48.9327 159.148 47.1919 162.897 48.5062 166.269C49.8139 169.653 53.678 171.357 57.1398 170.093C60.5849 168.81 62.3201 165.055 61.0117 161.683C60.8768 161.355 60.6925 161.052 60.52 160.751L77.2035 142.492C82.5999 145.674 88.7027 147.853 95.2964 148.747L93.4969 177.106C91.5335 177.782 89.7656 179.063 88.6122 180.929C85.9173 185.247 87.3244 190.894 91.7708 193.511C96.2106 196.14 101.988 194.774 104.664 190.472C107.365 186.154 105.934 180.512 101.495 177.877C101.063 177.612 100.609 177.433 100.137 177.241L101.937 149.173C105.703 149.173 109.403 148.784 112.951 147.961L119.005 166.544C117.879 167.481 117.058 168.791 116.773 170.332C116.137 173.876 118.567 177.253 122.192 177.889C125.829 178.526 129.328 176.177 129.953 172.621C130.583 169.083 128.147 165.699 124.515 165.069C124.155 165.011 123.821 164.997 123.435 164.979L117.471 146.675C126.304 143.665 134.009 138.149 139.579 130.954L148.321 140.286C147.708 141.604 147.513 143.127 147.922 144.635C148.882 148.138 152.538 150.206 156.091 149.303C159.668 148.4 161.816 144.828 160.89 141.351C159.923 137.86 156.261 135.785 152.679 136.675C152.327 136.776 152.009 136.896 151.66 137.031L142.308 127.04C145.003 122.721 146.97 117.922 148.074 112.785L171.947 116.761C172.193 118.195 172.92 119.572 174.104 120.61C176.887 122.992 181.093 122.739 183.551 120.029C185.992 117.317 185.697 113.199 182.919 110.812C180.129 108.436 175.917 108.706 173.464 111.411C173.251 111.677 173.06 111.962 172.858 112.24L148.825 108.242C148.927 107.457 149.046 106.685 149.096 105.886C149.465 99.889 148.609 94.1017 146.799 88.7036L168.372 85.3555C169.168 86.5736 170.348 87.5709 171.875 88.0779C175.385 89.2245 179.168 87.4043 180.339 83.981C181.487 80.5678 179.626 76.8648 176.103 75.7174C172.587 74.5704 168.809 76.4083 167.638 79.8258C167.522 80.1618 167.465 80.4957 167.402 80.8466L145.07 84.3107C143.487 80.8458 141.477 77.6279 139.081 74.6539L148.702 68.8369C149.595 69.4676 150.659 69.8298 151.851 69.7577C154.536 69.5683 156.575 67.2743 156.392 64.6342C156.179 61.9864 153.818 60.009 151.115 60.1916C148.399 60.385 146.377 62.6859 146.579 65.3271C146.6 65.5726 146.719 65.7719 146.776 66.0081L136.845 72.0095C132.066 66.8415 126.099 62.7461 119.304 60.0886L126.471 30.0482C129.191 29.5875 131.765 28.3035 133.683 26.1243C138.13 21.088 137.566 13.475 132.373 9.11326C127.203 4.77033 119.398 5.32511 114.94 10.3607ZM98.6597 117.187C98.4261 120.982 95.0602 123.887 91.1359 123.645C87.2296 123.405 84.2632 120.11 84.4968 116.315C84.7315 112.503 88.0732 109.603 91.9856 109.844C95.9038 110.085 98.8947 113.369 98.6597 117.187ZM115.143 100.341C114.971 103.134 112.5 105.262 109.64 105.085C106.751 104.908 104.578 102.494 104.75 99.7012C104.922 96.9027 107.369 94.7734 110.264 94.9517C113.142 95.1346 115.315 97.5425 115.143 100.341ZM94.2833 80.1781C94.0293 84.3035 90.3928 87.4354 86.1713 87.1756C81.92 86.9139 78.6891 83.3591 78.9431 79.2338C79.1971 75.1084 82.8399 71.971 87.0911 72.2327C91.3127 72.4926 94.5376 76.047 94.2833 80.1781Z" fill="#0A5287"/>
<path fill-rule="evenodd" clip-rule="evenodd" d="M35.9945 159.875L91.1279 84.5202L118.881 116.894L35.9945 159.875Z" fill="#FFB400" stroke="#FFB400" stroke-width="0.00359055" stroke-miterlimit="1.5" stroke-linecap="round" stroke-linejoin="round"/>
<path fill-rule="evenodd" clip-rule="evenodd" d="M175.224 40.4072L118.886 116.891L91.1117 84.5486L175.224 40.4072Z" fill="#FF002B"/>
</g>
<defs>
<clipPath id="clip0">
<rect width="200" height="200" fill="white"/>
</clipPath>
</defs>
</svg>
